<?xml version="1.0" encoding="iso-8859-1"?>
<!-- Generator: Adobe Illustrator 19.0.0, SVG Export Plug-In . SVG Version: 6.00 Build 0)  -->
<svg xmlns="http://www.w3.org/2000/svg" xmlns:xlink="http://www.w3.org/1999/xlink" version="1.1" id="Layer_1" x="0px" y="0px" viewBox="0 0 512 512" style="enable-background:new 0 0 512 512;" xml:space="preserve" width="512px" height="512px">
<g>
	<g>
		<g>
			<path d="M273.067,469.333H460.8c4.71,0,8.533-3.814,8.533-8.533V136.533c0-4.719-3.823-8.533-8.533-8.533H273.067     c-4.71,0-8.533,3.814-8.533,8.533V460.8C264.533,465.519,268.356,469.333,273.067,469.333z M281.6,145.067h170.667v307.2H281.6     V145.067z" fill="#027be3"/>
			<path d="M8.533,51.2h25.6v25.6c0,4.719,3.823,8.533,8.533,8.533c4.71,0,8.533-3.814,8.533-8.533V51.2h25.6     c4.71,0,8.533-3.814,8.533-8.533s-3.823-8.533-8.533-8.533H51.2v-25.6C51.2,3.814,47.377,0,42.667,0     c-4.71,0-8.533,3.814-8.533,8.533v25.6h-25.6C3.823,34.133,0,37.948,0,42.667S3.823,51.2,8.533,51.2z" fill="#027be3"/>
			<path d="M503.467,85.333h-409.6c-4.71,0-8.533,3.814-8.533,8.533v129.43C36.965,231.446,0,273.616,0,324.267     c0,50.651,36.965,92.821,85.333,100.97v78.23c0,4.719,3.823,8.533,8.533,8.533h409.6c4.71,0,8.533-3.814,8.533-8.533v-409.6     C512,89.148,508.177,85.333,503.467,85.333z M17.067,324.267c0-44.153,33.708-80.578,76.741-84.901     c0.02,0,0.039,0.003,0.059,0.003c0.431,0,0.851-0.042,1.266-0.104c2.398-0.203,4.818-0.331,7.268-0.331     c47.053,0,85.333,38.281,85.333,85.333S149.453,409.6,102.4,409.6c-2.45,0-4.87-0.128-7.268-0.331     c-0.414-0.062-0.834-0.104-1.266-0.104c-0.02,0-0.039,0.003-0.059,0.003C50.775,404.845,17.067,368.42,17.067,324.267z      M494.933,494.933H102.4v-68.267c56.465,0,102.4-45.935,102.4-102.4c0-56.465-45.935-102.4-102.4-102.4V102.4h392.533V494.933z" fill="#027be3"/>
		</g>
	</g>
</g>
<g>
</g>
<g>
</g>
<g>
</g>
<g>
</g>
<g>
</g>
<g>
</g>
<g>
</g>
<g>
</g>
<g>
</g>
<g>
</g>
<g>
</g>
<g>
</g>
<g>
</g>
<g>
</g>
<g>
</g>
</svg>
