<?xml version="1.0" encoding="iso-8859-1"?>
<!-- Generator: Adobe Illustrator 19.0.0, SVG Export Plug-In . SVG Version: 6.00 Build 0)  -->
<svg xmlns="http://www.w3.org/2000/svg" xmlns:xlink="http://www.w3.org/1999/xlink" version="1.1" id="Capa_1" x="0px" y="0px" viewBox="0 0 508 508" style="enable-background:new 0 0 508 508;" xml:space="preserve" width="512px" height="512px">
<g>
	<g>
		<polygon points="474.9,491.6 474.9,93.5 254,0 33.1,93.5 33.1,491.6 0.4,491.6 0.4,508 49.4,508 49.4,104.3 254,17.8 458.6,104.3     458.6,508 507.6,508 507.6,491.6   " fill="#3c8dbc"/>
	</g>
</g>
<g>
	<g>
		<polygon points="74,172.5 74,508 90.4,508 90.4,188.9 417.6,188.9 417.6,508 434,508 434,172.5   " fill="#3c8dbc"/>
	</g>
</g>
<g>
	<g>
		<path d="M114.9,393.4V508h130.9V393.4H114.9z M172.1,409.8h16.4v16.4h-16.4V409.8z M229.5,491.6h-98.2v-81.8h24.5v32.7h49.1v-32.7    h24.6V491.6z" fill="#3c8dbc"/>
	</g>
</g>
<g>
	<g>
		<path d="M262.2,393.4V508h130.9V393.4H262.2z M319.4,409.8h16.4v16.4h-16.4V409.8z M376.7,491.6h-98.2v-81.8H303v32.7h49.1v-32.7    h24.6V491.6z" fill="#3c8dbc"/>
	</g>
</g>
<g>
	<g>
		<path d="M188.5,377.1h130.9V262.5H188.5V377.1z M245.8,278.9h16.4v16.4h-16.4V278.9z M204.9,278.9h24.5v32.7h49.1v-32.7H303v81.8    h-98.1V278.9z" fill="#3c8dbc"/>
	</g>
</g>
<g>
	<g>
		<rect x="245.8" y="98.9" width="16.4" height="16.4" fill="#3c8dbc"/>
	</g>
</g>
<g>
	<g>
		<rect x="278.5" y="98.9" width="16.4" height="16.4" fill="#3c8dbc"/>
	</g>
</g>
<g>
	<g>
		<rect x="213.1" y="98.9" width="16.4" height="16.4" fill="#3c8dbc"/>
	</g>
</g>
<g>
</g>
<g>
</g>
<g>
</g>
<g>
</g>
<g>
</g>
<g>
</g>
<g>
</g>
<g>
</g>
<g>
</g>
<g>
</g>
<g>
</g>
<g>
</g>
<g>
</g>
<g>
</g>
<g>
</g>
</svg>
